# xmcd CD database file
#
# Track frame offsets:
#	150
#	16450
#	31828
#	54913
#	76683
#	100245
#	125378
#	147413
#	184250
#	210215
#	241915
#	269887
#	291690
#	318205
#
# Disc length: 4747 seconds
#
# Revision: 0
# Processed by: cddbd v1.4PL0 Copyright (c) Steve Scherf et al.
# Submitted via: CDex 1.50Beta7
#
DISCID=c412890e
DTITLE=Chuck Brown and The Soul Serchers - Go Go Swing DC Live Special
DYEAR=1900
DGENRE=Blues
TTITLE0=It Don't Mean A Thing
TTITLE1=Midnight Sun
TTITLE2=Moody's Mood
TTITLE3=Woody Woodpecker
TTITLE4=Here We Go Again
TTITLE5=Harlem Nocturne
TTITLE6=The Message
TTITLE7=Run Joe
TTITLE8=Stormy Monday
TTITLE9=Boogie On Go Go Woman
TTITLE10=Famuly Affair
TTITLE11=Take The Go Go Train
TTITLE12=The Christmas Song
TTITLE13=Day-O
EXTD=
EXTT0=
EXTT1=
EXTT2=
EXTT3=
EXTT4=
EXTT5=
EXTT6=
EXTT7=
EXTT8=
EXTT9=
EXTT10=
EXTT11=
EXTT12=
EXTT13=
PLAYORDER=
